# xmcd
#
# Track frame offsets:
# 182
# 16427
# 35162
# 54247
# 73055
# 91405
# 108832
# 128732
# 135517
# 149967
# 165687
# 181585
#
# Disc length: 2666 seconds
#
# Revision: 1
# Processed by: cddbd v1.5.1PL0 Copyright (c) Steve Scherf et al.
# Submitted via: CedeCatalogueitor 2.6.0.6 http://personales.ya.com/cdcatalogueitor
#
DISCID=a70a680c
DTITLE=Emilio Aragon - Eso Es Así
DYEAR=1992
DGENRE=
TTITLE0=Susanita
TTITLE1=Calorias
TTITLE2=Tus Amigos
TTITLE3=Te Sigo De Cerca
TTITLE4=All Right
TTITLE5=Cien Por Cien
TTITLE6=Ay Amapola
TTITLE7=Maldito Reloj
TTITLE8=Subiendo
TTITLE9=Caminando
TTITLE10=Sígueme
TTITLE11=Lorena
EXTD=
EXTT0=
EXTT1=
EXTT2=
EXTT3=
EXTT4=
EXTT5=
EXTT6=
EXTT7=
EXTT8=
EXTT9=
EXTT10=
EXTT11=
PLAYORDER=
